<svg width="399" height="176" viewBox="0 0 399 176" fill="none" xmlns="http://www.w3.org/2000/svg">
<path d="M210.793 171.412C184.824 171.51 155.575 177.143 120.574 175.745C85.9752 174.462 45.2238 166.031 22.7645 146.395C-0.0964833 126.643 -4.66521 95.6859 4.61013 66.1321C13.8855 36.5782 36.8059 8.74086 73.3718 2.44076C109.938 -3.85935 160.25 11.5923 191.778 20.3242C223.206 28.8416 236.149 30.5407 251.085 29.8514C265.823 29.4752 282.553 26.7106 303.912 27.1346C325.073 27.8717 350.861 31.7975 371.676 43.5493C392.593 55.5156 408.134 75.192 390.544 86.4147C372.852 97.4229 321.827 99.5485 298.538 114.128C275.25 128.707 279.296 155.623 269.826 166.412C260.254 176.985 237.164 171.431 210.793 171.412Z" fill="#5E05FF" fill-opacity="0.5"/>
</svg>
